PathFileType	4	(X/Y/Z)	D:\Long Term Storage\D'Arcy Smith\Coord17.trc
DataRate	CameraRate	NumFrames	NumMarkers	Units	OrigDataRate	OrigDataStartFrame	OrigNumFrames
120.00	120.00	      130	4	mm	120.00	1	      4853
Frame#	Time	M1			M2			M3			M4			
		X1	Y1	Z1	X2	Y2	Z2	X3	Y3	Z3	X4	Y4	Z4	

1	0.000	594.59558	392.52209	509.11566	966.96484	343.87811	407.88513							
2	0.008	594.22675	388.72714	502.24072	966.11267	343.52094	405.88000							
3	0.017	594.30505	384.20105	494.66141	965.61542	343.20462	403.01498							
4	0.025	594.34302	379.62854	485.93134	964.96588	342.57013	399.60413							
5	0.033	594.45294	374.50656	476.64032	964.31293	341.72833	395.38458							
6	0.042	594.60120	369.15598	464.48453	963.77319	340.95856	390.62292							
7	0.050	594.79102	363.88214	453.15067	963.22455	339.99747	385.27942							
8	0.058	594.65289	358.38809	440.00458	962.70996	339.04172	379.16666							
9	0.067	594.78949	352.77740	426.27356	962.22931	338.06317	372.70370							
10	0.075	594.81226	347.77539	412.04877	961.62061	337.10135	364.96219							
11	0.083	594.65771	342.72147	397.06772	961.24048	335.92441	356.77768							
12	0.092	594.46252	338.24219	380.75439	960.98193	334.94238	347.77753							
13	0.100	593.78503	334.43933	363.52515	960.73486	334.14883	337.89066							
14	0.108	593.45886	331.19537	345.84589	960.32922	333.17615	327.86041							
15	0.117	592.80316	328.79721	327.37076	960.18823	332.62540	316.71359							
16	0.125	591.99207	327.29575	308.39087	960.08124	332.21085	305.11972							
17	0.133	590.93463	326.59726	288.96552	959.96820	332.16660	292.86459							
18	0.142	589.98688	326.89584	269.87833	959.80627	332.48505	280.14374							
19	0.150	588.80023	328.03000	249.46635	959.86163	333.04193	266.84879							
20	0.158	587.85431	330.27753	230.44440	959.43024	334.18457	253.31291							
21	0.167	586.55267	333.79980	209.84073	959.78027	335.74146	239.27373							
22	0.175	583.83643	339.36554	185.77962	959.59290	336.85916	224.97585							
23	0.183	583.82086	342.66376	171.78230	960.03040	339.42142	210.93011							
24	0.192	582.33423	348.17316	153.57150	960.95477	342.72510	196.06335							
25	0.200	581.12793	354.91437	136.79742	961.01660	345.54474	181.76299							
26	0.208	579.81769	362.08905	120.58723	961.67065	349.50198	167.51352							
27	0.217	578.72345	369.81534	105.81990	962.42358	353.63000	152.88983							
28	0.225	577.56274	377.91263	92.21858	963.12756	358.29633	139.17139							
29	0.233	576.57050	386.79135	79.82782	963.74878	363.31012	125.61249							
30	0.242	575.67023	395.44507	68.78073	964.53027	368.58878	112.09244							
31	0.250	574.78870	404.15933	58.75467	965.37805	374.16199	99.19864							
32	0.258	573.74823	413.27646	50.01764	966.30371	381.17825	83.21991							
33	0.267	573.31049	421.58276	42.18135	967.15491	387.07138	71.17840							
34	0.275	572.70984	429.87317	35.81573	968.16687	393.32748	59.68432							
35	0.283	572.72400	436.67966	30.11588	969.11871	399.72852	48.56826							
36	0.292	572.49353	443.80051	25.54437	970.34814	406.15601	38.31074							
37	0.300	572.83832	450.11115	21.62131	971.32806	412.50388	28.77628							
38	0.308	573.38812	455.34055	18.76811	972.43915	418.71249	20.57024							
39	0.317	573.87433	460.18451	16.49648	973.53864	424.91489	11.87284							
40	0.325	574.46222	464.18842	14.98504	974.53137	430.67584	4.54234							
41	0.333	575.22455	467.30374	13.97461	975.60754	434.55658	0.69485							
42	0.342	575.95453	469.94247	13.16882	976.65167	439.62793	-5.21678							
43	0.350	576.69617	471.70459	13.14888	977.61340	444.15549	-10.11717							
44	0.358	577.38098	472.88443	13.11732	978.70233	448.17435	-14.42774							
45	0.367	578.18457	473.30038	13.38497	979.60260	451.67957	-17.94008							
46	0.375	579.12921	472.89624	14.04889	980.54077	454.22086	-20.49191							
47	0.383	579.92749	471.94305	15.03055	981.07312	456.43094	-22.90641							
48	0.392	580.88123	470.42343	16.11739	982.30548	458.05518	-24.56872							
49	0.400	581.58698	468.08377	17.42881	983.07916	459.04678	-25.31484							
50	0.408	582.68610	465.47382	19.37822	983.88568	459.25040	-25.39330							
51	0.417	583.47815	462.32825	21.62808	984.59637	459.30444	-25.87911							
52	0.425	584.41235	458.56046	24.14606	985.25269	458.11517	-24.59174							
53	0.433	585.23712	454.39337	27.14104	985.82697	456.59753	-23.33055							
54	0.442	586.06091	449.72977	30.47626	986.59613	454.26678	-20.11618							
55	0.450	586.99500	444.76587	34.08028	986.78625	451.52872	-17.53840							
56	0.458	587.75519	439.68127	37.51791	987.19312	448.55219	-14.72521							
57	0.467	589.20685	434.30423	43.10859	987.45215	445.10828	-11.30602							
58	0.475	590.17517	428.85443	48.18979	987.71057	441.23721	-7.43401							
59	0.483	591.39502	423.21112	53.33107	987.65845	436.96838	-3.04257							
60	0.492	592.69031	417.36603	58.96601	987.55640	432.35767	1.88235							
61	0.500	594.07971	411.40305	65.06109	987.59247	427.50470	7.06040							
62	0.508	595.48810	405.20953	70.82173	987.18268	423.37512	10.33822							
63	0.517	596.96130	399.20303	77.39269	986.90277	417.26572	17.50320							
64	0.525	598.62457	393.10733	84.30604	986.42157	411.89563	24.11509							
65	0.533	600.34448	386.93240	91.57780	985.95837	406.28928	31.18815							
66	0.542	602.08209	380.52359	99.21096	985.44641	400.44229	38.61453							
67	0.550	603.79504	374.26382	107.07921	984.83820	394.56360	46.36253							
68	0.558	605.47803	367.97891	115.79874	984.09033	388.64313	54.86782							
69	0.567	607.44812	361.19144	124.84525	983.35052	382.50092	63.53591							
70	0.575	608.93182	354.90775	135.01291	982.61096	376.28473	72.92526							
71	0.583	610.36230	349.10843	145.96225	981.99188	370.29025	82.59801							
72	0.592	611.66296	342.95859	157.06570	981.24249	364.27789	93.08616							
73	0.600	612.58820	336.80429	169.40045	980.59375	358.33713	103.94609							
74	0.608	613.73785	331.85022	182.14711	979.77478	352.39230	117.64706							
75	0.617	614.41699	327.12335	195.88022	979.19397	346.92023	129.06213							
76	0.625	615.22614	323.07697	209.95056	978.68512	341.62167	141.21159							
77	0.633	615.54852	319.57315	224.66917	978.24658	336.75693	153.79083							
78	0.642	615.89911	316.72275	239.98172	977.80963	332.10641	166.78865							
79	0.650	616.14655	314.43710	255.36458	977.44574	327.86087	180.15117							
80	0.658	615.91376	312.89676	270.85837	977.26990	324.53342	193.46057							
81	0.667	615.83362	312.08234	286.50714	976.98108	321.80856	207.31223							
82	0.675	615.60889	312.39008	301.56302	977.10339	319.50705	221.75909							
83	0.683	615.02582	312.07224	317.72229	976.45911	318.12595	235.12183							
84	0.692	614.44159	313.28568	333.58630	976.08051	316.92664	250.66312							
85	0.700	613.47656	315.08426	348.70898	976.92163	316.98083	264.15182							
86	0.708	612.61261	316.93451	363.14944	976.84668	317.13156	277.82196							
87	0.717	611.10364	319.45908	377.56647	976.64667	317.65247	291.55151							
88	0.725	609.71942	322.62949	391.16846	976.60571	318.55084	304.34274							
89	0.733	608.04779	326.60657	404.64545	976.53107	319.76437	317.14160							
90	0.742	606.31512	330.91870	416.56546	976.48657	321.49969	329.20926							
91	0.750	604.93982	335.43689	428.79163	976.35315	323.43118	340.87299							
92	0.758	603.34668	340.05673	439.76053	976.31049	325.70438	352.17795							
93	0.767	601.49762	344.72153	449.93381	976.02539	328.48196	362.74112							
94	0.775	599.62903	349.43268	459.29346	975.85767	331.44955	372.77859							
95	0.783	597.63861	354.12256	467.11017	975.59839	334.52136	382.09644							
96	0.792	596.34955	358.55997	476.83682	975.32141	337.69519	390.48514							
97	0.800	594.69049	362.88522	483.75220	974.91870	340.79602	398.30539							
98	0.808	593.04333	367.07870	489.78400	974.81439	343.74316	405.10452							
99	0.817	591.61859	371.09885	495.18173	973.92310	346.37158	411.53925							
100	0.825	590.23273	374.66122	499.60455	973.19971	349.16037	416.79407							
101	0.833	588.93396	377.75955	503.02347	973.46356	351.80905	420.57678							
102	0.842	587.72961	380.51312	505.38681	972.90698	354.01648	423.78787							
103	0.850	586.60950	382.76929	507.25064	972.24286	355.80023	426.27228							
104	0.858	585.54163	384.30264	507.71591	971.24921	357.05969	427.98083							
105	0.867	584.74792	385.21146	507.09750	970.47485	358.06158	428.49902							
106	0.875	583.95605	385.42874	505.67612	969.67468	358.52393	427.98209							
107	0.883	583.39008	384.88840	503.37338	968.76892	358.58615	426.35217							
108	0.892	582.86121	383.63675	499.66006	968.56262	358.08087	423.35657							
109	0.900	582.64661	381.72055	495.44382	967.72961	357.07043	419.94312							
110	0.908	582.75903	378.99316	489.92236	965.86292	355.02621	415.91373							
111	0.917	583.00916	375.82874	483.53082	965.00995	353.10080	410.23721							
112	0.925	583.29657	372.26404	476.05850	963.97394	351.05435	404.08701							
113	0.933	583.63757	368.21118	465.83209	962.97198	348.62936	396.70551							
114	0.942	583.95508	363.92532	456.57932	962.00745	346.13617	388.34027							
115	0.950	584.55725	359.39587	446.32605	961.25116	343.51251	379.36584							
116	0.958	585.18970	355.07693	435.45288	960.31055	340.96127	369.44403							
117	0.967	585.60547	350.58508	423.41425	959.45856	338.57571	358.56046							
118	0.975	586.38550	346.70099	411.23627	959.14117	336.19205	347.36215							
119	0.983	586.60352	342.80136	398.20392	958.11877	334.29712	334.99033							
120	0.992	587.01959	338.94833	384.39114	957.92322	332.12396	322.57623							
121	1.000	587.28973	335.70239	369.99838	956.95508	331.15930	308.75592							
122	1.008	587.52997	332.88635	354.55231	956.88318	330.08813	295.08292							
123	1.017	587.52124	330.43777	338.79721	956.02344	329.89465	280.84573							
124	1.025	587.58972	328.63885	322.57086	955.75146	330.11017	266.33673							
125	1.033	587.59418	327.39322	305.93436	955.61206	330.99173	251.19675							
126	1.042	587.48541	326.84052	288.88168	955.51263	332.42230	234.51277							
127	1.050	587.19489	326.99136	271.36954	955.59637	334.33557	220.08763							
128	1.058	587.00964	328.12485	253.78465	955.63184	336.92307	204.20403							
129	1.067	587.21545	330.32040	236.19806	955.84625	340.00189	188.98621							
130	1.075	586.11847	333.56882	218.17693	956.23315	343.95767	173.67366							
